<svg version="1.1" viewBox="0.0 0.0 252.00787401574803 252.31496062992127" fill="none" stroke="none" stroke-linecap="square" stroke-miterlimit="10" xmlns:xlink="http://www.w3.org/1999/xlink" xmlns="http://www.w3.org/2000/svg"><clipPath id="p.0"><path d="m0 0l252.00787 0l0 252.31496l-252.00787 0l0 -252.31496z" clip-rule="nonzero"/></clipPath><g clip-path="url(#p.0)"><path fill="#000000" fill-opacity="0.0" d="m0 0l252.00787 0l0 252.31496l-252.00787 0z" fill-rule="evenodd"/><path fill="#990000" d="m7.437008 101.03048l0 0c0 -2.986992 2.4214392 -5.408432 5.408436 -5.408432l195.26187 0c1.4344025 0 2.8100586 0.5698166 3.8243408 1.5840912c1.0142822 1.0142822 1.5840912 2.3899384 1.5840912 3.8243408l0 50.254005c0 2.9869843 -2.4214325 5.408432 -5.408432 5.408432l-195.26187 0c-2.9869967 0 -5.408436 -2.4214478 -5.408436 -5.408432z" fill-rule="evenodd"/><path fill="#3d85c6" d="m7.437008 30.340195l0 0c0 -2.9869976 2.4214392 -5.408436 5.408436 -5.408436l140.04927 0c1.4344025 0 2.8100586 0.5698147 3.8243408 1.5840931c1.0142822 1.0142784 1.5840912 2.3899364 1.5840912 3.8243427l0 50.253998c0 2.986992 -2.4214325 5.408432 -5.408432 5.408432l-140.04927 0c-2.9869967 0 -5.408436 -2.4214401 -5.408436 -5.408432z" fill-rule="evenodd"/><path fill="#f1c232" d="m7.437008 171.72078l0 0c0 -2.9869995 2.4214392 -5.4084473 5.408436 -5.4084473l226.31699 0c1.4344025 0 2.8100586 0.5698242 3.8243408 1.5840912c1.0142822 1.0142822 1.5840912 2.3899384 1.5840912 3.824356l0 50.253983c0 2.9869995 -2.4214325 5.4084473 -5.408432 5.4084473l-226.31699 0c-2.9869967 0 -5.408436 -2.4214478 -5.408436 -5.4084473z" fill-rule="evenodd"/><path fill="#f1c232" d="m166.91098 30.340195l0 0c0 -2.9869976 2.4214478 -5.408436 5.4084473 -5.408436l51.32486 0c1.4344025 0 2.8100586 0.5698147 3.8243408 1.5840931c1.0142822 1.0142784 1.5840912 2.3899364 1.5840912 3.8243427l0 50.253998c0 2.986992 -2.4214325 5.408432 -5.408432 5.408432l-51.32486 0c-2.9869995 0 -5.4084473 -2.4214401 -5.4084473 -5.408432z" fill-rule="evenodd"/></g></svg>